<mxfile host="app.diagrams.net" modified="2021-12-24T10:08:53.836Z" agent="5.0 (Windows NT 10.0; Win64; x64) AppleWebKit/537.36 (KHTML, like Gecko) Chrome/96.0.4664.110 Safari/537.36" etag="TL3yu1nTh8P1VtL3wFYX" version="16.0.3" type="github">
  <diagram id="cC8-WRztXhtqzdF1TvB3" name="Page-1">
    <mxGraphModel dx="868" dy="450" grid="1" gridSize="10" guides="1" tooltips="1" connect="1" arrows="1" fold="1" page="1" pageScale="1" pageWidth="827" pageHeight="1169" math="0" shadow="0">
      <root>
        <mxCell id="0" />
        <mxCell id="1" parent="0" />
        <mxCell id="29YaXaSGXWP-zVD464Du-1" style="edgeStyle=orthogonalEdgeStyle;rounded=0;orthogonalLoop=1;jettySize=auto;html=1;exitX=1;exitY=0.5;exitDx=0;exitDy=0;" parent="1" source="29YaXaSGXWP-zVD464Du-11" target="29YaXaSGXWP-zVD464Du-3" edge="1">
          <mxGeometry relative="1" as="geometry">
            <Array as="points">
              <mxPoint x="570" y="270" />
              <mxPoint x="570" y="100" />
            </Array>
            <mxPoint x="490" y="230" as="sourcePoint" />
          </mxGeometry>
        </mxCell>
        <mxCell id="29YaXaSGXWP-zVD464Du-2" style="edgeStyle=orthogonalEdgeStyle;rounded=0;orthogonalLoop=1;jettySize=auto;html=1;" parent="1" source="29YaXaSGXWP-zVD464Du-11" target="29YaXaSGXWP-zVD464Du-3" edge="1">
          <mxGeometry relative="1" as="geometry" />
        </mxCell>
        <mxCell id="29YaXaSGXWP-zVD464Du-3" value="UI" style="rounded=0;whiteSpace=wrap;html=1;" parent="1" vertex="1">
          <mxGeometry x="325" y="70" width="120" height="60" as="geometry" />
        </mxCell>
        <mxCell id="29YaXaSGXWP-zVD464Du-4" value="" style="edgeStyle=orthogonalEdgeStyle;rounded=0;orthogonalLoop=1;jettySize=auto;html=1;" parent="1" source="29YaXaSGXWP-zVD464Du-6" target="29YaXaSGXWP-zVD464Du-9" edge="1">
          <mxGeometry relative="1" as="geometry" />
        </mxCell>
        <mxCell id="29YaXaSGXWP-zVD464Du-5" style="edgeStyle=orthogonalEdgeStyle;rounded=0;orthogonalLoop=1;jettySize=auto;html=1;entryX=0.5;entryY=1;entryDx=0;entryDy=0;" parent="1" source="29YaXaSGXWP-zVD464Du-6" target="29YaXaSGXWP-zVD464Du-14" edge="1">
          <mxGeometry relative="1" as="geometry">
            <mxPoint x="110" y="180" as="targetPoint" />
          </mxGeometry>
        </mxCell>
        <mxCell id="29YaXaSGXWP-zVD464Du-6" value="Email Filter Bot" style="rounded=1;whiteSpace=wrap;html=1;" parent="1" vertex="1">
          <mxGeometry x="50" y="240" width="120" height="60" as="geometry" />
        </mxCell>
        <mxCell id="29YaXaSGXWP-zVD464Du-7" value="" style="edgeStyle=orthogonalEdgeStyle;rounded=0;orthogonalLoop=1;jettySize=auto;html=1;" parent="1" source="29YaXaSGXWP-zVD464Du-9" target="29YaXaSGXWP-zVD464Du-11" edge="1">
          <mxGeometry relative="1" as="geometry" />
        </mxCell>
        <mxCell id="29YaXaSGXWP-zVD464Du-8" style="edgeStyle=orthogonalEdgeStyle;rounded=0;orthogonalLoop=1;jettySize=auto;html=1;" parent="1" source="29YaXaSGXWP-zVD464Du-9" target="29YaXaSGXWP-zVD464Du-15" edge="1">
          <mxGeometry relative="1" as="geometry">
            <Array as="points">
              <mxPoint x="280" y="340" />
              <mxPoint x="355" y="340" />
            </Array>
          </mxGeometry>
        </mxCell>
        <mxCell id="29YaXaSGXWP-zVD464Du-9" value="Invoice parser" style="rounded=1;whiteSpace=wrap;html=1;" parent="1" vertex="1">
          <mxGeometry x="220" y="240" width="120" height="60" as="geometry" />
        </mxCell>
        <mxCell id="29YaXaSGXWP-zVD464Du-10" style="edgeStyle=orthogonalEdgeStyle;rounded=0;orthogonalLoop=1;jettySize=auto;html=1;" parent="1" source="29YaXaSGXWP-zVD464Du-11" target="29YaXaSGXWP-zVD464Du-15" edge="1">
          <mxGeometry relative="1" as="geometry">
            <Array as="points">
              <mxPoint x="450" y="340" />
              <mxPoint x="355" y="340" />
            </Array>
          </mxGeometry>
        </mxCell>
        <mxCell id="29YaXaSGXWP-zVD464Du-11" value="Invoice validation" style="rounded=1;whiteSpace=wrap;html=1;" parent="1" vertex="1">
          <mxGeometry x="440" y="240" width="120" height="60" as="geometry" />
        </mxCell>
        <mxCell id="29YaXaSGXWP-zVD464Du-12" value="get details about emails which are invoices" style="text;html=1;align=center;verticalAlign=middle;resizable=0;points=[];autosize=1;strokeColor=none;fillColor=none;" parent="1" vertex="1">
          <mxGeometry x="570" y="130" width="240" height="20" as="geometry" />
        </mxCell>
        <mxCell id="29YaXaSGXWP-zVD464Du-13" value="For each ID fetch the status of validation" style="text;html=1;align=center;verticalAlign=middle;resizable=0;points=[];autosize=1;strokeColor=none;fillColor=none;" parent="1" vertex="1">
          <mxGeometry x="570" y="160" width="230" height="20" as="geometry" />
        </mxCell>
        <mxCell id="29YaXaSGXWP-zVD464Du-14" value="Outlook Client" style="ellipse;whiteSpace=wrap;html=1;" parent="1" vertex="1">
          <mxGeometry x="50" y="80" width="120" height="80" as="geometry" />
        </mxCell>
        <mxCell id="29YaXaSGXWP-zVD464Du-15" value="" style="shape=cylinder3;whiteSpace=wrap;html=1;boundedLbl=1;backgroundOutline=1;size=15;" parent="1" vertex="1">
          <mxGeometry x="325" y="370" width="65" height="80" as="geometry" />
        </mxCell>
        <mxCell id="29YaXaSGXWP-zVD464Du-16" value="If Invoice" style="text;html=1;align=center;verticalAlign=middle;resizable=0;points=[];autosize=1;strokeColor=none;fillColor=none;" parent="1" vertex="1">
          <mxGeometry x="360" y="250" width="60" height="20" as="geometry" />
        </mxCell>
        <mxCell id="29YaXaSGXWP-zVD464Du-17" value="InvoiceId&lt;br&gt;Validation1&lt;br&gt;Validation2&lt;br&gt;Validation3" style="text;html=1;align=center;verticalAlign=middle;resizable=0;points=[];autosize=1;strokeColor=none;fillColor=none;" parent="1" vertex="1">
          <mxGeometry x="414" y="380" width="70" height="60" as="geometry" />
        </mxCell>
        <mxCell id="29YaXaSGXWP-zVD464Du-18" value="Return pdf" style="text;html=1;align=center;verticalAlign=middle;resizable=0;points=[];autosize=1;strokeColor=none;fillColor=none;" parent="1" vertex="1">
          <mxGeometry x="410" y="160" width="70" height="20" as="geometry" />
        </mxCell>
        <mxCell id="29YaXaSGXWP-zVD464Du-19" value="Invoice parsed fields&lt;br&gt;" style="text;html=1;align=center;verticalAlign=middle;resizable=0;points=[];autosize=1;strokeColor=none;fillColor=none;" parent="1" vertex="1">
          <mxGeometry x="205" y="410" width="120" height="20" as="geometry" />
        </mxCell>
        <mxCell id="29YaXaSGXWP-zVD464Du-20" value="invoiceId&lt;br&gt;PDF" style="text;html=1;align=center;verticalAlign=middle;resizable=0;points=[];autosize=1;strokeColor=none;fillColor=none;" parent="1" vertex="1">
          <mxGeometry x="265" y="370" width="60" height="30" as="geometry" />
        </mxCell>
        <mxCell id="29YaXaSGXWP-zVD464Du-21" value="Text" style="text;html=1;align=center;verticalAlign=middle;resizable=0;points=[];autosize=1;strokeColor=none;fillColor=none;" parent="1" vertex="1">
          <mxGeometry x="260" y="430" width="40" height="20" as="geometry" />
        </mxCell>
        <mxCell id="ErzMzu7I0JQI4MmyYcn--1" value="Database" style="text;html=1;align=center;verticalAlign=middle;resizable=0;points=[];autosize=1;strokeColor=none;fillColor=none;" vertex="1" parent="1">
          <mxGeometry x="325" y="410" width="70" height="20" as="geometry" />
        </mxCell>
      </root>
    </mxGraphModel>
  </diagram>
</mxfile>
